<?xml version="1.0" encoding="utf-8"?>
<!-- Generator: Adobe Illustrator 22.0.1, SVG Export Plug-In . SVG Version: 6.00 Build 0)  -->
<svg version="1.1" id="Laag_1" xmlns="http://www.w3.org/2000/svg" xmlns:xlink="http://www.w3.org/1999/xlink" x="0px" y="0px"
	 viewBox="0 0 283.5 283.5" style="enable-background:new 0 0 283.5 283.5;" xml:space="preserve">
<style type="text/css">
	.st0{fill:#243556;}
	.st1{fill:#FFFFFF;}
	.st2{fill:#FAB001;}
</style>
<path class="st0" d="M107.3-40"/>
<path class="st1" d="M100.4,133.7c-0.7,0.6-1.2,1.2-1.8,1.8c-0.5,0.5-0.9,1-1.2,1.6c-0.4,0.6-0.6,1.1-0.6,1.6v13.8
	c0,2-0.4,3.8-1.1,5.5c-0.7,1.7-1.8,3.2-3.1,4.5c-1.3,1.3-2.8,2.3-4.5,3.1c-1.7,0.7-3.5,1.1-5.5,1.1l-2.7,0.1c-2,0-3.8-0.4-5.5-1.2
	c-1.7-0.8-3.2-1.8-4.5-3.1c-1.3-1.3-2.3-2.8-3.1-4.5c-0.7-1.7-1.1-3.6-1.1-5.5v-13.8c-0.1-0.5-0.4-1-0.7-1.6
	c-0.4-0.6-0.8-1.1-1.2-1.6c-0.5-0.6-1.1-1.2-1.7-1.8c0.9-0.7,1.6-1.3,2-1.9c0.5-0.6,0.8-1.2,1.1-1.7c0.2-0.5,0.4-0.9,0.4-1.3
	c0.1-0.4,0.1-0.6,0.1-0.8v-13.4c0-2,0.4-3.8,1.1-5.5c0.7-1.7,1.8-3.2,3.1-4.5c1.3-1.3,2.8-2.3,4.5-3.1c1.7-0.7,3.5-1.1,5.5-1.1h2.8
	c2,0,3.8,0.4,5.5,1.1c1.7,0.7,3.2,1.8,4.4,3.1c1.3,1.3,2.3,2.8,3,4.5c0.7,1.7,1.1,3.5,1.1,5.5V128c0,0.1,0,0.4,0.1,0.7
	c0.1,0.4,0.2,0.8,0.4,1.3c0.2,0.5,0.6,1.1,1.1,1.7C98.8,132.4,99.5,133,100.4,133.7z M82.6,157.2c1.4,0,2.5-0.6,3.4-1.7
	c0.9-1.2,1.4-2.4,1.4-3.7v-13.4c-0.1-0.5-0.4-1-0.7-1.5c-0.4-0.5-0.8-1-1.2-1.5c-0.5-0.6-1.1-1.2-1.7-1.7c0.9-0.7,1.6-1.3,2.1-1.9
	c0.5-0.6,0.9-1.2,1.1-1.7c0.2-0.5,0.4-1,0.4-1.3c0.1-0.4,0.1-0.6,0.1-0.7v-12.9c0-1.3-0.5-2.5-1.4-3.7c-1-1.2-2.1-1.7-3.4-1.7h-2.8
	c-1.4,0-2.5,0.6-3.4,1.7c-0.9,1.2-1.4,2.4-1.4,3.7V128c0,0.1,0,0.4,0.1,0.7c0.1,0.4,0.2,0.8,0.4,1.3s0.6,1.1,1.1,1.7
	c0.5,0.6,1.2,1.3,2,1.9c-0.6,0.6-1.2,1.2-1.7,1.8c-0.5,0.5-0.9,1-1.3,1.6c-0.4,0.6-0.6,1.1-0.7,1.6v13.2c0,1.3,0.5,2.5,1.4,3.7
	c0.9,1.2,2.1,1.8,3.4,1.8L82.6,157.2z"/>
<path class="st1" d="M132.3,146.7c-0.3-0.7-0.6-1.3-1-1.9c-0.4-0.7-0.9-1.2-1.3-1.8h14.8c-0.5,0.5-1,1-1.4,1.7
	c-0.4,0.5-0.7,1.1-0.9,1.8c-0.3,0.7-0.4,1.3-0.4,2v3.6c0,2-0.4,3.8-1.1,5.5c-0.7,1.7-1.7,3.2-3,4.5c-1.3,1.3-2.8,2.3-4.4,3.1
	c-1.7,0.8-3.5,1.2-5.5,1.2h-2.7c-2,0-3.8-0.4-5.5-1.1c-1.7-0.7-3.2-1.8-4.4-3.1c-1.3-1.3-2.3-2.8-3-4.5c-0.7-1.7-1.1-3.5-1.1-5.5
	v-13.7c-0.1-0.5-0.3-1-0.6-1.6c-0.4-0.6-0.8-1.1-1.2-1.6c-0.5-0.6-1.1-1.2-1.8-1.8c0.9-0.7,1.6-1.3,2.1-2c0.5-0.7,0.9-1.2,1.1-1.8
	c0.2-0.5,0.4-1,0.4-1.3c0-0.4,0-0.6,0-0.6v-13.5c0-2,0.4-3.8,1.1-5.5c0.7-1.7,1.7-3.2,3-4.5c1.3-1.3,2.8-2.3,4.4-3.1
	c1.7-0.8,3.5-1.2,5.5-1.2h2.8c2,0,3.8,0.4,5.5,1.2c1.7,0.8,3.2,1.8,4.4,3.1c1.2,1.3,2.2,2.8,3,4.5c0.7,1.7,1.1,3.6,1.1,5.5v2.7
	c0,0.8,0.1,1.6,0.4,2.3c0.3,0.7,0.6,1.3,1,1.9c0.4,0.7,0.9,1.2,1.4,1.7H130c0.5-0.5,1-1,1.4-1.6c0.4-0.5,0.7-1,1-1.7
	c0.3-0.7,0.4-1.4,0.4-2.2v-3c0-1.4-0.5-2.5-1.4-3.4c-0.9-0.9-2.1-1.4-3.4-1.4h-2.8c-1.4,0-2.5,0.5-3.4,1.4c-0.9,0.9-1.4,2.1-1.4,3.4
	V128c0,0.1,0,0.3,0,0.7c0,0.3,0.2,0.8,0.4,1.3c0.2,0.5,0.6,1.1,1.1,1.8c0.5,0.7,1.2,1.3,2.1,2c-0.7,0.6-1.2,1.2-1.8,1.8
	c-0.5,0.5-0.9,1-1.2,1.6c-0.4,0.6-0.6,1.1-0.6,1.6v13.7c0,1.3,0.5,2.4,1.4,3.3c0.9,0.9,2.1,1.4,3.4,1.4h2.7c1.4,0,2.5-0.5,3.4-1.4
	c0.9-0.9,1.4-2.1,1.4-3.4V149C132.7,148.2,132.6,147.4,132.3,146.7z"/>
<path class="st1" d="M166.2,162.6c0.3,0.7,0.6,1.3,0.9,1.9c0.4,0.7,0.9,1.2,1.4,1.7h-14.8c0.5-0.5,0.9-1.1,1.3-1.8
	c0.4-0.5,0.7-1.1,1-1.8c0.3-0.7,0.4-1.4,0.4-2.1v-21.9c-0.1-0.5-0.3-1-0.6-1.6c-0.4-0.6-0.8-1.1-1.2-1.6c-0.5-0.6-1.1-1.2-1.8-1.8
	c0.9-0.7,1.6-1.3,2.1-2c0.5-0.7,0.9-1.2,1.1-1.8s0.4-1,0.4-1.3c0-0.4,0-0.6,0-0.6v-21.4c0-0.7-0.1-1.3-0.4-2c-0.3-0.7-0.6-1.2-1-1.8
	c-0.4-0.7-0.9-1.2-1.3-1.8h14.8c-0.5,0.4-1,0.9-1.4,1.5c-0.4,0.5-0.7,1-0.9,1.7c-0.3,0.7-0.4,1.4-0.4,2.1V128c0,0.1,0,0.3,0,0.7
	c0,0.3,0.2,0.8,0.4,1.3c0.2,0.5,0.6,1.1,1.1,1.8c0.5,0.7,1.2,1.3,2.1,2c-0.7,0.6-1.2,1.2-1.8,1.8c-0.5,0.5-0.9,1-1.2,1.6
	c-0.4,0.6-0.6,1.1-0.6,1.6v21.7C165.8,161.1,165.9,161.9,166.2,162.6z"/>
<path class="st1" d="M215.7,162.7c0.3,0.7,0.6,1.2,1,1.8c0.4,0.7,0.9,1.2,1.4,1.8H203c0.7-0.5,1.2-1.2,1.6-1.9
	c0.4-0.6,0.6-1.3,0.8-2.2c0.2-0.9,0.1-1.8-0.2-2.8l-13.3-33.1v34.3c0,0.8,0.1,1.6,0.4,2.3c0.3,0.7,0.6,1.3,1,1.7
	c0.4,0.6,0.9,1.1,1.4,1.6h-14.6c0.5-0.5,1-1,1.4-1.7c0.4-0.5,0.7-1.1,1-1.8c0.3-0.7,0.4-1.4,0.4-2.2v-21.9h-0.1
	c-0.1-0.5-0.3-1-0.6-1.6c-0.4-0.6-0.8-1.1-1.2-1.6c-0.5-0.6-1.1-1.2-1.8-1.8c0.9-0.7,1.7-1.3,2.1-2c0.5-0.7,0.8-1.2,1.1-1.8
	s0.4-1,0.4-1.3c0-0.4,0-0.6,0-0.6v-21.9c0-0.4-0.1-0.9-0.4-1.5c-0.3-0.6-0.6-1.1-1-1.6c-0.4-0.7-0.9-1.3-1.3-1.9h16
	c-0.6,0.6-1.1,1.2-1.5,1.9c-0.4,0.6-0.7,1.2-0.9,1.9c-0.2,0.7-0.3,1.4-0.1,2.1l12.7,31.6v-32.5c0-0.5-0.1-1.1-0.4-1.7
	c-0.3-0.6-0.6-1.1-1-1.6c-0.4-0.6-0.9-1.2-1.4-1.7h14.6c-0.5,0.5-1,1.1-1.4,1.7c-0.4,0.5-0.7,1-1,1.6c-0.3,0.6-0.4,1.2-0.4,1.7v21.8
	c0,0.1,0,0.3,0,0.6c0,0.4,0.2,0.8,0.4,1.3c0.2,0.5,0.6,1.1,1.1,1.8c0.5,0.7,1.2,1.3,2.1,2c-0.7,0.6-1.2,1.2-1.8,1.8
	c-0.5,0.5-0.9,1-1.2,1.6c-0.4,0.6-0.6,1.1-0.6,1.6v22C215.3,161.3,215.4,162,215.7,162.7z"/>
<path class="st1" d="M249.8,192.1c0.6-0.9,1.1-1.8,1.5-2.7c0.4-0.8,0.7-1.8,0.9-2.9c0.3-1.1,0.3-2.2,0.2-3.4
	c-0.1-1.2-0.2-2.3-0.4-3.5c-0.1-1.2-0.2-2.3-0.4-3.2c-0.1-1.1-0.2-2.2-0.4-3.2h-11.8l-1,10.2c-0.1,1,0,2,0.2,3c0.3,1,0.6,2,0.9,2.8
	c0.4,1,0.9,1.9,1.4,2.9h-14.5c0.5-0.7,0.9-1.4,1.2-2.1c0.3-0.7,0.6-1.3,0.8-2.1c0.3-0.7,0.5-1.4,0.6-2.1l2.9-29.7
	c0.1-1.2,0-2.3-0.4-3.4c-0.4-1.1-0.7-2.1-1.2-3c-0.5-1-1.1-2-1.7-3c1.2-0.9,2.2-1.8,2.9-2.7c0.7-0.9,1.2-1.8,1.5-2.6
	c0.4-0.9,0.6-1.8,0.6-2.7c0.8-8.5,1.5-15.5,2.1-20.8c0.6-5.3,0.9-8.2,1-8.6c0.1-0.9,0-1.8-0.3-2.8c-0.3-1-0.6-1.8-1-2.7
	c-0.4-0.9-0.9-1.9-1.4-2.9h22c-0.6,1-1.1,1.9-1.5,2.9c-0.4,0.8-0.7,1.7-0.9,2.7c-0.3,1-0.3,1.8-0.2,2.5l3.1,29.7
	c0.1,0.4,0.2,1,0.3,1.6c0.1,0.7,0.4,1.4,0.8,2.1c0.4,0.7,0.8,1.5,1.4,2.2c0.6,0.7,1.4,1.3,2.3,1.9c-0.7,0.9-1.2,1.8-1.7,2.7
	c-0.4,0.8-0.8,1.8-1.1,2.9c-0.3,1.1-0.4,2.2-0.3,3.5c0.4,3.2,0.7,6.5,1,9.9c0.3,3.4,0.6,6.4,0.9,9.3c0.3,2.8,0.5,5.2,0.7,7
	c0.2,1.9,0.3,2.9,0.4,3.2c0.1,0.7,0.3,1.5,0.6,2.4c0.3,0.8,0.6,1.6,0.9,2.2c0.4,0.8,0.8,1.6,1.2,2.4H249.8z M250.1,160.6l-4.6-45.6
	l-4.6,45.6H250.1z"/>
<path class="st1" d="M93.2,248.6c1.1-0.5,2.2-1,3.1-1.7c1-0.6,1.8-1.3,2.5-1.9c0.7-0.6,1.2-1.2,1.6-1.6l-4.2,17.9H62.3
	c0.7-1,1.4-1.9,1.9-2.9c0.5-0.9,0.9-1.8,1.3-2.8c0.4-1,0.6-2,0.6-2.9v-0.2V224c-0.1-0.6-0.4-1.3-0.8-2.1c-0.5-0.8-1-1.5-1.7-2.1
	c-0.7-0.8-1.5-1.6-2.4-2.4c1.2-0.9,2.1-1.8,2.8-2.6c0.7-0.9,1.2-1.7,1.5-2.4c0.3-0.7,0.5-1.3,0.5-1.8c0-0.5,0.1-0.8,0.1-0.8v-28.6
	c0-1.2-0.2-2.3-0.6-3.2c-0.4-1-0.8-1.8-1.3-2.4c-0.6-0.8-1.2-1.5-1.8-2h20.1c-1.3,0.8-2.2,1.9-2.9,3.4c-0.6,1.4-1,2.7-1,3.8v29.1
	c0,0.2,0,0.5,0.1,1c0.1,0.5,0.3,1.1,0.6,1.8c0.3,0.7,0.8,1.5,1.4,2.3c0.6,0.8,1.6,1.7,2.8,2.6c-0.8,0.8-1.6,1.6-2.3,2.4
	c-0.6,0.6-1.2,1.3-1.7,2.1c-0.5,0.8-0.8,1.5-0.9,2.1v25.4h11.3C91,249.4,92.1,249.1,93.2,248.6z"/>
<path class="st1" d="M128,206.4c-0.7,0.6-1.3,1.2-1.8,1.8c-0.5,0.5-0.9,1-1.3,1.6c-0.4,0.6-0.6,1.1-0.6,1.6v14c0,2-0.4,3.8-1.1,5.5
	c-0.8,1.7-1.8,3.2-3.1,4.5c-1.3,1.3-2.8,2.4-4.5,3.1c-1.7,0.8-3.6,1.1-5.5,1.1l-2.7,0.1c-2,0-3.8-0.4-5.5-1.2
	c-1.7-0.8-3.2-1.8-4.5-3.1c-1.3-1.3-2.4-2.8-3.1-4.5c-0.8-1.7-1.1-3.6-1.1-5.6v-14c-0.1-0.5-0.4-1-0.7-1.6c-0.4-0.6-0.8-1.1-1.3-1.6
	c-0.5-0.6-1.1-1.2-1.7-1.8c0.9-0.7,1.6-1.3,2.1-1.9c0.5-0.6,0.8-1.2,1.1-1.7c0.2-0.5,0.4-1,0.5-1.4c0.1-0.4,0.1-0.6,0.1-0.8V187
	c0-2,0.4-3.8,1.1-5.5c0.8-1.7,1.8-3.2,3.1-4.5c1.3-1.3,2.8-2.4,4.5-3.1c1.7-0.7,3.6-1.1,5.5-1.1h2.8c2,0,3.8,0.4,5.5,1.1
	c1.7,0.8,3.2,1.8,4.5,3.1c1.3,1.3,2.3,2.8,3.1,4.5c0.8,1.7,1.1,3.6,1.1,5.5v13.6c0,0.1,0,0.4,0.1,0.7c0.1,0.4,0.2,0.8,0.4,1.4
	c0.2,0.5,0.6,1.1,1.1,1.8C126.4,205.1,127.1,205.7,128,206.4z M110,230.2c1.4,0,2.6-0.6,3.5-1.8c0.9-1.2,1.4-2.4,1.4-3.7v-13.6
	c-0.1-0.5-0.4-1-0.7-1.5c-0.4-0.5-0.8-1-1.3-1.5c-0.5-0.6-1.1-1.2-1.7-1.7c0.9-0.7,1.6-1.3,2.1-1.9c0.5-0.6,0.9-1.2,1.1-1.8
	c0.2-0.5,0.4-1,0.4-1.4c0.1-0.4,0.1-0.6,0.1-0.7v-13.1c0-1.3-0.5-2.6-1.5-3.7c-1-1.2-2.1-1.8-3.4-1.8h-2.8c-1.4,0-2.6,0.6-3.5,1.8
	c-0.9,1.2-1.4,2.4-1.4,3.7v13.1c0,0.1,0,0.4,0.1,0.7c0.1,0.4,0.2,0.8,0.4,1.4s0.6,1.1,1.1,1.8c0.5,0.6,1.2,1.3,2.1,1.9
	c-0.6,0.6-1.2,1.2-1.7,1.8c-0.5,0.5-0.9,1-1.3,1.6c-0.4,0.6-0.6,1.1-0.7,1.6v13.4c0,1.3,0.5,2.6,1.4,3.8c0.9,1.2,2.1,1.8,3.5,1.8
	L110,230.2z"/>
<path class="st1" d="M160.3,219.5c-0.3-0.7-0.6-1.3-1-1.9c-0.4-0.7-0.9-1.3-1.3-1.8h14.9c-0.5,0.5-1,1.1-1.4,1.7
	c-0.4,0.5-0.7,1.2-0.9,1.8c-0.3,0.7-0.4,1.4-0.4,2v3.7c0,2-0.4,3.8-1.1,5.6c-0.8,1.7-1.8,3.3-3.1,4.5c-1.3,1.3-2.8,2.3-4.5,3.1
	c-1.7,0.8-3.6,1.2-5.5,1.2h-2.7c-2,0-3.8-0.4-5.5-1.1c-1.7-0.8-3.2-1.8-4.5-3.1c-1.3-1.3-2.3-2.8-3.1-4.5c-0.8-1.7-1.1-3.6-1.1-5.5
	v-13.9c-0.1-0.5-0.3-1-0.6-1.6c-0.4-0.6-0.8-1.1-1.3-1.6c-0.5-0.6-1.1-1.2-1.8-1.8c0.9-0.7,1.6-1.3,2.1-2c0.5-0.7,0.9-1.3,1.1-1.8
	c0.2-0.5,0.4-1,0.4-1.3c0-0.4,0-0.6,0-0.6v-13.7c0-2,0.4-3.8,1.1-5.6c0.8-1.7,1.8-3.3,3.1-4.5c1.3-1.3,2.8-2.3,4.5-3.1
	c1.7-0.8,3.6-1.2,5.5-1.2h2.8c2,0,3.8,0.4,5.5,1.2c1.7,0.8,3.2,1.8,4.5,3.1c1.3,1.3,2.3,2.8,3,4.5s1.1,3.6,1.1,5.6v2.7
	c0,0.8,0.1,1.6,0.4,2.3c0.3,0.7,0.6,1.3,1,1.9c0.4,0.7,0.9,1.2,1.4,1.7h-15c0.5-0.5,1-1,1.4-1.6c0.4-0.5,0.7-1,1-1.7
	c0.3-0.7,0.4-1.4,0.4-2.3v-3.1c0-1.4-0.5-2.5-1.4-3.5c-1-0.9-2.1-1.4-3.4-1.4h-2.8c-1.4,0-2.5,0.5-3.5,1.4c-0.9,0.9-1.4,2.1-1.4,3.5
	v13.7c0,0.1,0,0.3,0,0.7s0.2,0.8,0.4,1.3c0.2,0.5,0.6,1.1,1.1,1.8c0.5,0.7,1.2,1.3,2.1,2c-0.7,0.6-1.3,1.2-1.8,1.8
	c-0.5,0.5-0.9,1-1.3,1.6c-0.4,0.6-0.6,1.1-0.6,1.6v13.9c0,1.3,0.5,2.4,1.4,3.4c0.9,0.9,2.1,1.4,3.5,1.4h2.7c1.4,0,2.5-0.5,3.5-1.4
	c0.9-0.9,1.4-2.1,1.4-3.5v-3.2C160.8,221,160.6,220.2,160.3,219.5z"/>
<path class="st1" d="M203.3,238.5c0.6-0.7,1.1-1.3,1.5-2c0.4-0.6,0.7-1.3,0.9-2c0.3-0.8,0.3-1.6,0.2-2.4c-0.1-0.8-0.2-1.7-0.4-2.5
	c-0.1-0.9-0.2-1.6-0.4-2.3c-0.1-0.8-0.2-1.5-0.4-2.3h-12l-1,7.3c-0.1,0.7,0,1.4,0.2,2.2c0.3,0.7,0.6,1.4,0.9,2
	c0.4,0.7,0.9,1.4,1.4,2h-14.7c0.5-0.5,0.9-1,1.3-1.5c0.3-0.5,0.6-1,0.9-1.5c0.3-0.5,0.5-1,0.6-1.5l3-21.3c0.1-0.8,0-1.6-0.4-2.4
	s-0.8-1.5-1.2-2.1c-0.5-0.7-1.1-1.4-1.7-2.1c1.3-0.7,2.2-1.3,2.9-2c0.7-0.7,1.2-1.3,1.5-1.9c0.4-0.7,0.6-1.3,0.6-2
	c0.8-6.1,1.5-11.1,2.1-14.9c0.6-3.8,0.9-5.8,1-6.1c0.1-0.7,0-1.3-0.3-2c-0.3-0.7-0.6-1.3-1-1.9c-0.4-0.7-0.9-1.3-1.4-2h22.3
	c-0.6,0.7-1.1,1.4-1.5,2c-0.4,0.6-0.7,1.2-0.9,1.9c-0.3,0.7-0.3,1.3-0.2,1.8l3.2,21.3c0.1,0.3,0.2,0.7,0.3,1.2
	c0.1,0.5,0.4,1,0.8,1.5c0.4,0.5,0.8,1.1,1.4,1.6c0.6,0.5,1.4,1,2.3,1.4c-0.7,0.7-1.2,1.3-1.7,2c-0.4,0.6-0.8,1.3-1.1,2
	c-0.3,0.8-0.4,1.6-0.3,2.5c0.4,2.3,0.7,4.7,1,7.1c0.3,2.4,0.6,4.6,0.9,6.6c0.3,2,0.5,3.7,0.7,5c0.2,1.3,0.3,2.1,0.4,2.3
	c0.1,0.5,0.3,1.1,0.6,1.7c0.3,0.6,0.6,1.1,0.9,1.6c0.4,0.6,0.8,1.2,1.3,1.7H203.3z M203.6,216l-4.7-32.7l-4.7,32.7H203.6z"/>
<path class="st1" d="M43.8,154.9c-0.3-1.3-0.6-2.5-1-3.5c-0.4-1.2-0.9-2.3-1.3-3.3h14.8c-0.5,0.9-1,2-1.4,3.2
	c-0.4,1-0.7,2.1-0.9,3.4c-0.3,1.3-0.4,2.5-0.4,3.8v6.9c0,3.7-0.4,7.1-1.1,10.4c-0.7,3.2-1.7,6.1-3,8.5c-1.3,2.4-2.8,4.3-4.4,5.8
	c-1.7,1.5-3.5,2.2-5.5,2.2h-2.7c-2,0-3.8-0.7-5.5-2.1c-1.7-1.4-3.2-3.3-4.4-5.8c-1.3-2.5-2.3-5.3-3-8.5c-0.7-3.2-1.1-6.6-1.1-10.3
	v-25.8c-0.1-0.9-0.3-1.9-0.6-2.9c-0.4-1.1-0.8-2-1.2-2.9c-0.5-1.1-1.1-2.2-1.8-3.3c0.9-1.2,1.6-2.5,2.1-3.7c0.5-1.2,0.9-2.3,1.1-3.3
	c0.2-1,0.4-1.8,0.4-2.5c0-0.7,0-1.1,0-1.2V94.3c0-3.7,0.4-7.1,1.1-10.4c0.7-3.2,1.7-6.1,3-8.5c1.3-2.4,2.8-4.3,4.4-5.8
	c1.7-1.4,3.5-2.2,5.5-2.2h2.8c2,0,3.8,0.7,5.5,2.2c1.7,1.5,3.2,3.4,4.4,5.8c1.2,2.4,2.2,5.2,3,8.5c0.7,3.2,1.1,6.7,1.1,10.4v5
	c0,1.6,0.1,3,0.4,4.4c0.3,1.3,0.6,2.5,1,3.5c0.4,1.2,0.9,2.3,1.4,3.2H41.5c0.5-0.9,1-1.9,1.4-3c0.4-0.9,0.7-2,1-3.2
	c0.3-1.2,0.4-2.6,0.4-4.2v-5.7c0-2.6-0.5-4.7-1.4-6.4c-0.9-1.7-2.1-2.6-3.4-2.6h-2.8c-1.4,0-2.5,0.9-3.4,2.6
	c-0.9,1.7-1.4,3.9-1.4,6.4v25.4c0,0.2,0,0.6,0,1.3c0,0.6,0.2,1.4,0.4,2.4c0.2,1,0.6,2.1,1.1,3.3c0.5,1.2,1.2,2.5,2.1,3.7
	c-0.7,1.1-1.2,2.2-1.8,3.3c-0.5,0.9-0.9,1.9-1.2,2.9c-0.4,1.1-0.6,2-0.6,2.9v25.8c0,2.5,0.5,4.5,1.4,6.3c0.9,1.7,2.1,2.6,3.4,2.6
	h2.7c1.4,0,2.5-0.9,3.4-2.6c0.9-1.7,1.4-3.9,1.4-6.4v-6C44.3,157.7,44.1,156.3,43.8,154.9z"/>
<path class="st2" d="M161.1,91.4c-0.8-4.6,4.5-13.7,6.7-18c7.7-15,20.3-21.5,29.5-23.2c6.6-1.2,10-3,11.3-4.5
	c0.2-0.2,0.4-0.5,0.6-0.8c0.1-0.1,0.1-0.2,0.1-0.2c0,0,0,0,0-0.1c1-2,1.3-5.5,1.3-5.5c10.3-8.9,13.5-4.1,13.5-4.1
	c-0.4-1.9-1.4-2-2.1-2.3c-1.2-0.5-4.6-0.2-6,0.1c-5.1,1.1-8.1,0.3-8.1,0.3c-1-1-1.2-1.4-2.2-2.1c-1.3-0.9-1.9-1-2.2-1.2
	c-5.6-2.7-21.2,6.6-27.1,10.9C154,57,158.6,80.1,158.6,87C158.5,93.9,161.1,91.4,161.1,91.4z"/>
<path class="st1" d="M85.1,82.8c0.8-0.3,1.5-0.7,2.2-1.2c0.7-0.5,1.3-0.9,1.8-1.4c0.5-0.5,0.9-0.8,1.1-1.1l-3,12.7h-24
	c0.5-0.7,1-1.4,1.4-2c0.3-0.6,0.7-1.3,0.9-2c0.3-0.7,0.4-1.4,0.4-2.1v-0.2V65.4c-0.1-0.5-0.3-0.9-0.6-1.5c-0.3-0.5-0.7-1-1.2-1.5
	c-0.5-0.6-1.1-1.1-1.7-1.7c0.9-0.6,1.5-1.2,2-1.9c0.5-0.6,0.8-1.2,1.1-1.7c0.2-0.5,0.4-0.9,0.4-1.3c0-0.3,0-0.5,0-0.6V35
	c0-0.9-0.1-1.6-0.4-2.3C65.3,32,65,31.5,64.6,31c-0.4-0.6-0.8-1-1.3-1.4h14.2c-0.9,0.6-1.6,1.4-2,2.4c-0.5,1-0.7,1.9-0.7,2.7v20.6
	c0,0.1,0,0.3,0.1,0.7c0.1,0.3,0.2,0.8,0.4,1.3c0.2,0.5,0.6,1.1,1,1.7c0.5,0.6,1.1,1.2,2,1.8c-0.6,0.6-1.1,1.1-1.6,1.7
	c-0.5,0.5-0.9,0.9-1.2,1.5c-0.4,0.5-0.6,1-0.6,1.5v18h8C83.6,83.3,84.3,83.2,85.1,82.8z"/>
<path class="st1" d="M119.8,91.7c0.6-0.6,1-1.2,1.4-1.9c0.3-0.6,0.6-1.2,0.9-2c0.3-0.7,0.3-1.5,0.2-2.3c-0.1-0.8-0.2-1.6-0.3-2.4
	c-0.1-0.8-0.2-1.5-0.3-2.2c-0.1-0.7-0.2-1.5-0.3-2.2H110l-0.9,7c-0.1,0.7,0,1.4,0.2,2.1c0.3,0.7,0.6,1.3,0.9,1.9
	c0.4,0.7,0.9,1.3,1.4,2H97.6c0.5-0.5,0.9-0.9,1.2-1.4c0.3-0.5,0.6-0.9,0.8-1.4c0.3-0.5,0.4-0.9,0.6-1.4l2.8-20.3
	c0.1-0.8,0-1.6-0.3-2.3c-0.3-0.7-0.7-1.4-1.1-2c-0.5-0.7-1.1-1.4-1.6-2c1.2-0.6,2.1-1.2,2.8-1.9c0.7-0.6,1.1-1.2,1.4-1.8
	c0.3-0.6,0.5-1.2,0.6-1.9c0.8-5.8,1.5-10.6,2-14.2c0.5-3.6,0.9-5.6,1-5.9c0.1-0.6,0-1.3-0.3-1.9c-0.3-0.7-0.6-1.3-0.9-1.8
	c-0.4-0.6-0.9-1.3-1.4-2h21.1c-0.6,0.7-1.1,1.3-1.4,2c-0.3,0.6-0.6,1.2-0.9,1.8c-0.3,0.7-0.3,1.2-0.2,1.7l3,20.3
	c0.1,0.3,0.2,0.7,0.3,1.1c0.1,0.5,0.4,0.9,0.7,1.4c0.3,0.5,0.8,1,1.4,1.5c0.6,0.5,1.3,0.9,2.2,1.3c-0.6,0.6-1.2,1.2-1.6,1.9
	c-0.4,0.6-0.8,1.2-1.1,2c-0.3,0.7-0.4,1.5-0.3,2.4c0.3,2.2,0.7,4.5,1,6.8c0.3,2.3,0.6,4.4,0.9,6.3c0.3,1.9,0.5,3.5,0.6,4.8
	c0.2,1.3,0.3,2,0.3,2.2c0.1,0.5,0.3,1.1,0.6,1.6c0.3,0.6,0.6,1.1,0.9,1.5c0.3,0.6,0.7,1.1,1.2,1.6H119.8z M120.1,70.2L115.7,39
	l-4.4,31.2H120.1z"/>
<g>
	<g>
		<path class="st2" d="M118.5,260.1v-7.1l-2.6,5.1h-1.5l-2.6-5.1v7.1h-2.7v-11.8h3l3.1,6.2l3.1-6.2h2.9v11.8H118.5z"/>
		<path class="st2" d="M134.7,257.7v2.4h-8.3v-11.8h8.1v2.4h-5.4v2.3h4.6v2.2h-4.6v2.5H134.7z"/>
		<path class="st2" d="M141.1,248.3l2.6,4.1l2.6-4.1h2.9l-4.1,6l4,5.8h-2.9l-2.4-3.9l-2.4,3.9h-3l4-5.8l-4.1-6H141.1z"/>
		<path class="st2" d="M153.2,260.1v-11.8h2.7v11.8H153.2z"/>
		<path class="st2" d="M160.4,254.1c0-0.7,0.1-1.4,0.4-2.1c0.3-0.7,0.6-1.3,1.1-1.9c0.5-0.6,1.1-1,1.8-1.3c0.7-0.3,1.5-0.5,2.4-0.5
			c1.1,0,2,0.2,2.7,0.7c0.8,0.5,1.3,1.1,1.7,1.9l-2.1,1.5c-0.1-0.3-0.3-0.6-0.5-0.8c-0.2-0.2-0.4-0.4-0.6-0.5
			c-0.2-0.1-0.5-0.2-0.7-0.3c-0.2,0-0.5-0.1-0.7-0.1c-0.5,0-0.9,0.1-1.3,0.3c-0.4,0.2-0.6,0.5-0.9,0.8c-0.2,0.3-0.4,0.7-0.5,1.1
			c-0.1,0.4-0.2,0.8-0.2,1.3c0,0.5,0.1,0.9,0.2,1.3c0.1,0.4,0.3,0.8,0.6,1.1c0.2,0.3,0.5,0.6,0.9,0.8c0.4,0.2,0.7,0.3,1.2,0.3
			c0.2,0,0.5,0,0.7-0.1c0.2-0.1,0.5-0.2,0.7-0.3c0.2-0.1,0.4-0.3,0.6-0.5c0.2-0.2,0.3-0.5,0.4-0.8l2.2,1.3c-0.2,0.4-0.4,0.8-0.8,1.2
			c-0.3,0.3-0.7,0.6-1.2,0.9c-0.4,0.2-0.9,0.4-1.4,0.5c-0.5,0.1-1,0.2-1.4,0.2c-0.8,0-1.6-0.2-2.2-0.5c-0.7-0.3-1.3-0.8-1.8-1.4
			c-0.5-0.6-0.9-1.2-1.2-2C160.6,255.6,160.4,254.9,160.4,254.1z"/>
		<path class="st2" d="M173.8,260.1l4.5-11.8h2.2l4.5,11.8h-2.9l-0.9-2.6h-3.7l-0.9,2.6H173.8z M179.4,251.2l-1.4,4.4h2.8
			L179.4,251.2z"/>
		<path class="st2" d="M191.8,253.4v6.7h-2.7v-11.8h2.1l5.5,6.9v-6.9h2.7v11.8h-2.2L191.8,253.4z"/>
		<path class="st2" d="M211.5,260.1v-11.8h8v2.4h-5.3v2.5h4.3v2.2h-4.3v4.6H211.5z"/>
		<path class="st2" d="M228.7,260.2c-0.8,0-1.6-0.2-2.3-0.5c-0.7-0.3-1.3-0.8-1.8-1.4c-0.5-0.6-0.9-1.2-1.1-1.9
			c-0.3-0.7-0.4-1.5-0.4-2.2c0-0.8,0.1-1.5,0.4-2.2c0.3-0.7,0.7-1.4,1.2-1.9c0.5-0.5,1.1-1,1.8-1.3c0.7-0.3,1.4-0.5,2.3-0.5
			c0.8,0,1.6,0.2,2.3,0.5c0.7,0.3,1.3,0.8,1.8,1.4c0.5,0.6,0.9,1.2,1.1,1.9c0.3,0.7,0.4,1.5,0.4,2.2c0,0.8-0.1,1.5-0.4,2.2
			c-0.3,0.7-0.7,1.4-1.2,1.9c-0.5,0.5-1.1,1-1.8,1.3C230.2,260,229.5,260.2,228.7,260.2z M225.8,254.2c0,0.5,0.1,0.9,0.2,1.3
			c0.1,0.4,0.3,0.8,0.5,1.1c0.2,0.3,0.5,0.6,0.9,0.8c0.4,0.2,0.8,0.3,1.2,0.3c0.5,0,0.9-0.1,1.2-0.3c0.4-0.2,0.6-0.5,0.9-0.8
			c0.2-0.3,0.4-0.7,0.5-1.1c0.1-0.4,0.2-0.9,0.2-1.3c0-0.5-0.1-0.9-0.2-1.3c-0.1-0.4-0.3-0.8-0.6-1.1c-0.2-0.3-0.5-0.6-0.9-0.8
			c-0.4-0.2-0.8-0.3-1.2-0.3c-0.5,0-0.9,0.1-1.2,0.3c-0.4,0.2-0.6,0.5-0.9,0.8c-0.2,0.3-0.4,0.7-0.5,1.1
			C225.9,253.4,225.8,253.8,225.8,254.2z"/>
		<path class="st2" d="M243.8,260.2c-0.8,0-1.6-0.2-2.3-0.5c-0.7-0.3-1.3-0.8-1.8-1.4c-0.5-0.6-0.9-1.2-1.1-1.9
			c-0.3-0.7-0.4-1.5-0.4-2.2c0-0.8,0.1-1.5,0.4-2.2c0.3-0.7,0.7-1.4,1.2-1.9c0.5-0.5,1.1-1,1.8-1.3c0.7-0.3,1.4-0.5,2.3-0.5
			c0.8,0,1.6,0.2,2.3,0.5c0.7,0.3,1.3,0.8,1.8,1.4c0.5,0.6,0.9,1.2,1.1,1.9s0.4,1.5,0.4,2.2c0,0.8-0.1,1.5-0.4,2.2
			c-0.3,0.7-0.7,1.4-1.2,1.9s-1.1,1-1.8,1.3C245.4,260,244.6,260.2,243.8,260.2z M241,254.2c0,0.5,0.1,0.9,0.2,1.3
			c0.1,0.4,0.3,0.8,0.5,1.1c0.2,0.3,0.5,0.6,0.9,0.8c0.4,0.2,0.8,0.3,1.2,0.3c0.5,0,0.9-0.1,1.2-0.3c0.4-0.2,0.6-0.5,0.9-0.8
			c0.2-0.3,0.4-0.7,0.5-1.1s0.2-0.9,0.2-1.3c0-0.5-0.1-0.9-0.2-1.3c-0.1-0.4-0.3-0.8-0.6-1.1c-0.2-0.3-0.5-0.6-0.9-0.8
			c-0.4-0.2-0.8-0.3-1.2-0.3c-0.5,0-0.9,0.1-1.2,0.3c-0.4,0.2-0.6,0.5-0.9,0.8c-0.2,0.3-0.4,0.7-0.5,1.1
			C241,253.4,241,253.8,241,254.2z"/>
		<path class="st2" d="M254,260.1v-11.8h4.4c1,0,1.8,0.2,2.6,0.5c0.7,0.3,1.3,0.7,1.8,1.3c0.5,0.5,0.9,1.2,1.1,1.9
			c0.2,0.7,0.4,1.5,0.4,2.3c0,0.9-0.1,1.7-0.4,2.4c-0.3,0.7-0.7,1.3-1.2,1.9c-0.5,0.5-1.1,0.9-1.9,1.2c-0.7,0.3-1.5,0.4-2.4,0.4H254
			z M261.6,254.2c0-0.5-0.1-1-0.2-1.4c-0.1-0.4-0.3-0.8-0.6-1.1c-0.3-0.3-0.6-0.5-1-0.7c-0.4-0.2-0.8-0.2-1.3-0.2h-1.7v7h1.7
			c0.5,0,0.9-0.1,1.3-0.3c0.4-0.2,0.7-0.4,1-0.7c0.3-0.3,0.5-0.7,0.6-1.1C261.5,255.2,261.6,254.7,261.6,254.2z"/>
	</g>
</g>
</svg>
